{
    "asset" : {
        "generator" : "Khronos glTF Blender I/O v1.7.33",
        "version" : "2.0"
    },
    "scene" : 0,
    "scenes" : [
        {
            "name" : "Scene",
            "nodes" : [
                0,
                1,
                3,
                4,
                5,
                6,
                7
            ]
        }
    ],
    "nodes" : [
        {
            "mesh" : 0,
            "name" : "Target",
            "scale" : [
                0.7189586758613586,
                0.7189586758613586,
                0.03621101751923561
            ],
            "translation" : [
                3.696134567260742,
                1.0534847974777222,
                -7.748116493225098
            ]
        },
        {
            "mesh" : 1,
            "name" : "Ground",
            "rotation" : [
                0.7059816718101501,
                0,
                0,
                0.7082300782203674
            ],
            "scale" : [
                9.897552490234375,
                9.614184379577637,
                0.09439714252948761
            ],
            "translation" : [
                -0.007171113975346088,
                0,
                -0.01240617036819458
            ]
        },
        {
            "mesh" : 2,
            "name" : "Arrow",
            "rotation" : [
                -0.04289058595895767,
                -0.0024140849709510803,
                -0.008635084144771099,
                0.9990395903587341
            ],
            "scale" : [
                0.02984049543738365,
                0.02485690824687481,
                0.6061761379241943
            ],
            "translation" : [
                0.022387981414794922,
                -0.22620612382888794,
                -1.374824047088623
            ]
        },
        {
            "camera" : 0,
            "children" : [
                2
            ],
            "name" : "Camera",
            "rotation" : [
                0.042444877326488495,
                0.009491120465099812,
                -0.002996828407049179,
                0.9990492463111877
            ],
            "translation" : [
                6.448905944824219,
                0.632149875164032,
                7.401108264923096
            ]
        },
        {
            "mesh" : 3,
            "name" : "Cube.001",
            "translation" : [
                0,
                1.1764222383499146,
                1.0568046569824219
            ]
        },
        {
            "mesh" : 4,
            "name" : "Cube.002",
            "scale" : [
                0.21877819299697876,
                0.21877819299697876,
                0.21877819299697876
            ],
            "translation" : [
                0,
                0.42262232303619385,
                6.404717445373535
            ]
        },
        {
            "mesh" : 5,
            "name" : "Cube.003",
            "rotation" : [
                0.7148786783218384,
                0,
                0,
                0.6992486119270325
            ],
            "scale" : [
                0.4964916706085205,
                1,
                0.26565438508987427
            ],
            "translation" : [
                -0.04552139714360237,
                0.37569528818130493,
                -4.89631462097168
            ]
        },
        {
            "mesh" : 6,
            "name" : "pickup",
            "scale" : [
                0.06237684562802315,
                0.06237684562802315,
                0.06237684562802315
            ],
            "translation" : [
                6.107085227966309,
                0.13711389899253845,
                -4.811990737915039
            ]
        }
    ],
    "cameras" : [
        {
            "name" : "Camera",
            "perspective" : {
                "aspectRatio" : 1.7777777777777777,
                "yfov" : 0.39959652046304894,
                "zfar" : 100,
                "znear" : 0.10000000149011612
            },
            "type" : "perspective"
        }
    ],
    "materials" : [
        {
            "doubleSided" : true,
            "name" : "Material",
            "pbrMetallicRoughness" : {
                "baseColorTexture" : {
                    "index" : 0
                },
                "metallicFactor" : 0,
                "roughnessFactor" : 0.4000000059604645
            }
        },
        {
            "doubleSided" : true,
            "name" : "Material.001",
            "pbrMetallicRoughness" : {
                "baseColorTexture" : {
                    "index" : 1
                },
                "metallicFactor" : 0,
                "roughnessFactor" : 0.5
            }
        }
    ],
    "meshes" : [
        {
            "name" : "Cube.005",
            "primitives" : [
                {
                    "attributes" : {
                        "POSITION" : 0,
                        "NORMAL" : 1,
                        "TEXCOORD_0" : 2
                    },
                    "indices" : 3,
                    "material" : 0
                }
            ]
        },
        {
            "name" : "Cube",
            "primitives" : [
                {
                    "attributes" : {
                        "POSITION" : 4,
                        "NORMAL" : 5,
                        "TEXCOORD_0" : 6
                    },
                    "indices" : 7,
                    "material" : 0
                }
            ]
        },
        {
            "name" : "Cube.004",
            "primitives" : [
                {
                    "attributes" : {
                        "POSITION" : 8,
                        "NORMAL" : 9,
                        "TEXCOORD_0" : 10
                    },
                    "indices" : 11,
                    "material" : 1
                }
            ]
        },
        {
            "name" : "Cube.001",
            "primitives" : [
                {
                    "attributes" : {
                        "POSITION" : 12,
                        "NORMAL" : 13,
                        "TEXCOORD_0" : 14
                    },
                    "indices" : 3,
                    "material" : 0
                }
            ]
        },
        {
            "name" : "Cube.002",
            "primitives" : [
                {
                    "attributes" : {
                        "POSITION" : 15,
                        "NORMAL" : 16,
                        "TEXCOORD_0" : 17
                    },
                    "indices" : 3,
                    "material" : 0
                }
            ]
        },
        {
            "name" : "Cube.003",
            "primitives" : [
                {
                    "attributes" : {
                        "POSITION" : 18,
                        "NORMAL" : 19,
                        "TEXCOORD_0" : 20
                    },
                    "indices" : 3,
                    "material" : 0
                }
            ]
        },
        {
            "name" : "Icosphere",
            "primitives" : [
                {
                    "attributes" : {
                        "POSITION" : 21,
                        "NORMAL" : 22,
                        "TEXCOORD_0" : 23
                    },
                    "indices" : 24,
                    "material" : 1
                }
            ]
        }
    ],
    "textures" : [
        {
            "sampler" : 0,
            "source" : 0
        },
        {
            "sampler" : 0,
            "source" : 1
        }
    ],
    "images" : [
        {
            "mimeType" : "image/png",
            "name" : "Untitled",
            "uri" : "Untitled.png"
        },
        {
            "mimeType" : "image/png",
            "name" : "arrow_texture",
            "uri" : "arrow_texture.png"
        }
    ],
    "accessors" : [
        {
            "bufferView" : 0,
            "componentType" : 5126,
            "count" : 24,
            "max" : [
                1,
                1,
                1
            ],
            "min" : [
                -1,
                -1,
                -1
            ],
            "type" : "VEC3"
        },
        {
            "bufferView" : 1,
            "componentType" : 5126,
            "count" : 24,
            "type" : "VEC3"
        },
        {
            "bufferView" : 2,
            "componentType" : 5126,
            "count" : 24,
            "type" : "VEC2"
        },
        {
            "bufferView" : 3,
            "componentType" : 5123,
            "count" : 36,
            "type" : "SCALAR"
        },
        {
            "bufferView" : 4,
            "componentType" : 5126,
            "count" : 24,
            "max" : [
                1,
                1,
                1
            ],
            "min" : [
                -1,
                -1,
                -1
            ],
            "type" : "VEC3"
        },
        {
            "bufferView" : 5,
            "componentType" : 5126,
            "count" : 24,
            "type" : "VEC3"
        },
        {
            "bufferView" : 6,
            "componentType" : 5126,
            "count" : 24,
            "type" : "VEC2"
        },
        {
            "bufferView" : 7,
            "componentType" : 5123,
            "count" : 36,
            "type" : "SCALAR"
        },
        {
            "bufferView" : 8,
            "componentType" : 5126,
            "count" : 14,
            "max" : [
                1,
                1,
                1
            ],
            "min" : [
                -1,
                -1,
                -1
            ],
            "type" : "VEC3"
        },
        {
            "bufferView" : 9,
            "componentType" : 5126,
            "count" : 14,
            "type" : "VEC3"
        },
        {
            "bufferView" : 10,
            "componentType" : 5126,
            "count" : 14,
            "type" : "VEC2"
        },
        {
            "bufferView" : 11,
            "componentType" : 5123,
            "count" : 36,
            "type" : "SCALAR"
        },
        {
            "bufferView" : 12,
            "componentType" : 5126,
            "count" : 24,
            "max" : [
                1,
                1,
                1
            ],
            "min" : [
                -1,
                -1,
                -1
            ],
            "type" : "VEC3"
        },
        {
            "bufferView" : 13,
            "componentType" : 5126,
            "count" : 24,
            "type" : "VEC3"
        },
        {
            "bufferView" : 14,
            "componentType" : 5126,
            "count" : 24,
            "type" : "VEC2"
        },
        {
            "bufferView" : 15,
            "componentType" : 5126,
            "count" : 24,
            "max" : [
                1,
                1,
                1
            ],
            "min" : [
                -1,
                -1,
                -1
            ],
            "type" : "VEC3"
        },
        {
            "bufferView" : 16,
            "componentType" : 5126,
            "count" : 24,
            "type" : "VEC3"
        },
        {
            "bufferView" : 17,
            "componentType" : 5126,
            "count" : 24,
            "type" : "VEC2"
        },
        {
            "bufferView" : 18,
            "componentType" : 5126,
            "count" : 24,
            "max" : [
                1,
                1,
                1
            ],
            "min" : [
                -1,
                -1,
                -1
            ],
            "type" : "VEC3"
        },
        {
            "bufferView" : 19,
            "componentType" : 5126,
            "count" : 24,
            "type" : "VEC3"
        },
        {
            "bufferView" : 20,
            "componentType" : 5126,
            "count" : 24,
            "type" : "VEC2"
        },
        {
            "bufferView" : 21,
            "componentType" : 5126,
            "count" : 240,
            "max" : [
                0.9510578513145447,
                0.9999999403953552,
                1
            ],
            "min" : [
                -0.9510578513145447,
                -0.9999999403953552,
                -1
            ],
            "type" : "VEC3"
        },
        {
            "bufferView" : 22,
            "componentType" : 5126,
            "count" : 240,
            "type" : "VEC3"
        },
        {
            "bufferView" : 23,
            "componentType" : 5126,
            "count" : 240,
            "type" : "VEC2"
        },
        {
            "bufferView" : 24,
            "componentType" : 5123,
            "count" : 240,
            "type" : "SCALAR"
        }
    ],
    "bufferViews" : [
        {
            "buffer" : 0,
            "byteLength" : 288,
            "byteOffset" : 0
        },
        {
            "buffer" : 0,
            "byteLength" : 288,
            "byteOffset" : 288
        },
        {
            "buffer" : 0,
            "byteLength" : 192,
            "byteOffset" : 576
        },
        {
            "buffer" : 0,
            "byteLength" : 72,
            "byteOffset" : 768
        },
        {
            "buffer" : 0,
            "byteLength" : 288,
            "byteOffset" : 840
        },
        {
            "buffer" : 0,
            "byteLength" : 288,
            "byteOffset" : 1128
        },
        {
            "buffer" : 0,
            "byteLength" : 192,
            "byteOffset" : 1416
        },
        {
            "buffer" : 0,
            "byteLength" : 72,
            "byteOffset" : 1608
        },
        {
            "buffer" : 0,
            "byteLength" : 168,
            "byteOffset" : 1680
        },
        {
            "buffer" : 0,
            "byteLength" : 168,
            "byteOffset" : 1848
        },
        {
            "buffer" : 0,
            "byteLength" : 112,
            "byteOffset" : 2016
        },
        {
            "buffer" : 0,
            "byteLength" : 72,
            "byteOffset" : 2128
        },
        {
            "buffer" : 0,
            "byteLength" : 288,
            "byteOffset" : 2200
        },
        {
            "buffer" : 0,
            "byteLength" : 288,
            "byteOffset" : 2488
        },
        {
            "buffer" : 0,
            "byteLength" : 192,
            "byteOffset" : 2776
        },
        {
            "buffer" : 0,
            "byteLength" : 288,
            "byteOffset" : 2968
        },
        {
            "buffer" : 0,
            "byteLength" : 288,
            "byteOffset" : 3256
        },
        {
            "buffer" : 0,
            "byteLength" : 192,
            "byteOffset" : 3544
        },
        {
            "buffer" : 0,
            "byteLength" : 288,
            "byteOffset" : 3736
        },
        {
            "buffer" : 0,
            "byteLength" : 288,
            "byteOffset" : 4024
        },
        {
            "buffer" : 0,
            "byteLength" : 192,
            "byteOffset" : 4312
        },
        {
            "buffer" : 0,
            "byteLength" : 2880,
            "byteOffset" : 4504
        },
        {
            "buffer" : 0,
            "byteLength" : 2880,
            "byteOffset" : 7384
        },
        {
            "buffer" : 0,
            "byteLength" : 1920,
            "byteOffset" : 10264
        },
        {
            "buffer" : 0,
            "byteLength" : 480,
            "byteOffset" : 12184
        }
    ],
    "samplers" : [
        {
            "magFilter" : 9729,
            "minFilter" : 9987
        }
    ],
    "buffers" : [
        {
            "byteLength" : 12664,
            "uri" : "towers.bin"
        }
    ]
}
