{
    "asset" : {
        "generator" : "Khronos glTF Blender I/O v1.7.33",
        "version" : "2.0"
    },
    "scene" : 0,
    "scenes" : [
        {
            "name" : "Scene",
            "nodes" : [
                1,
                2
            ]
        }
    ],
    "nodes" : [
        {
            "camera" : 0,
            "name" : "Camera",
            "rotation" : [
                -0.7071067690849304,
                0,
                0,
                0.7071067690849304
            ]
        },
        {
            "children" : [
                0
            ],
            "rotation" : [
                0.483536034822464,
                0.33687159419059753,
                -0.20870360732078552,
                0.7804827094078064
            ],
            "translation" : [
                7.358891487121582,
                4.958309173583984,
                6.925790786743164
            ]
        },
        {
            "mesh" : 0,
            "name" : "barrel",
            "scale" : [
                0.9377337098121643,
                0.9377337098121643,
                0.9377337098121643
            ],
            "translation" : [
                -0.006352301687002182,
                0,
                -0.003976687788963318
            ]
        }
    ],
    "cameras" : [
        {
            "name" : "Camera",
            "perspective" : {
                "aspectRatio" : 1.7777777777777777,
                "yfov" : 0.39959652046304894,
                "zfar" : 100,
                "znear" : 0.10000000149011612
            },
            "type" : "perspective"
        }
    ],
    "materials" : [
        {
            "doubleSided" : true,
            "name" : "wood",
            "pbrMetallicRoughness" : {
                "metallicFactor" : 0,
                "roughnessFactor" : 0.5
            }
        },
        {
            "doubleSided" : true,
            "name" : "metal",
            "pbrMetallicRoughness" : {
                "metallicFactor" : 0,
                "roughnessFactor" : 0.5
            }
        }
    ],
    "meshes" : [
        {
            "name" : "Circle",
            "primitives" : [
                {
                    "attributes" : {
                        "POSITION" : 0,
                        "NORMAL" : 1,
                        "TEXCOORD_0" : 2
                    },
                    "indices" : 3,
                    "material" : 0
                },
                {
                    "attributes" : {
                        "POSITION" : 4,
                        "NORMAL" : 5,
                        "TEXCOORD_0" : 6
                    },
                    "indices" : 7,
                    "material" : 1
                }
            ]
        }
    ],
    "accessors" : [
        {
            "bufferView" : 0,
            "componentType" : 5126,
            "count" : 477,
            "max" : [
                0.6196062564849854,
                1.3212871551513672,
                0.6196062564849854
            ],
            "min" : [
                -0.6196062564849854,
                -0.006806906312704086,
                -0.6196062564849854
            ],
            "type" : "VEC3"
        },
        {
            "bufferView" : 1,
            "componentType" : 5126,
            "count" : 477,
            "type" : "VEC3"
        },
        {
            "bufferView" : 2,
            "componentType" : 5126,
            "count" : 477,
            "type" : "VEC2"
        },
        {
            "bufferView" : 3,
            "componentType" : 5123,
            "count" : 1044,
            "type" : "SCALAR"
        },
        {
            "bufferView" : 4,
            "componentType" : 5126,
            "count" : 408,
            "max" : [
                0.6183295249938965,
                1.2691233158111572,
                0.6183295249938965
            ],
            "min" : [
                -0.6183295249938965,
                0.035280145704746246,
                -0.6183295249938965
            ],
            "type" : "VEC3"
        },
        {
            "bufferView" : 5,
            "componentType" : 5126,
            "count" : 408,
            "type" : "VEC3"
        },
        {
            "bufferView" : 6,
            "componentType" : 5126,
            "count" : 408,
            "type" : "VEC2"
        },
        {
            "bufferView" : 7,
            "componentType" : 5123,
            "count" : 1152,
            "type" : "SCALAR"
        }
    ],
    "bufferViews" : [
        {
            "buffer" : 0,
            "byteLength" : 5724,
            "byteOffset" : 0
        },
        {
            "buffer" : 0,
            "byteLength" : 5724,
            "byteOffset" : 5724
        },
        {
            "buffer" : 0,
            "byteLength" : 3816,
            "byteOffset" : 11448
        },
        {
            "buffer" : 0,
            "byteLength" : 2088,
            "byteOffset" : 15264
        },
        {
            "buffer" : 0,
            "byteLength" : 4896,
            "byteOffset" : 17352
        },
        {
            "buffer" : 0,
            "byteLength" : 4896,
            "byteOffset" : 22248
        },
        {
            "buffer" : 0,
            "byteLength" : 3264,
            "byteOffset" : 27144
        },
        {
            "buffer" : 0,
            "byteLength" : 2304,
            "byteOffset" : 30408
        }
    ],
    "buffers" : [
        {
            "byteLength" : 32712,
            "uri" : "barrel.bin"
        }
    ]
}
